# xmcd
#
# Track frame offsets:
#	150
#	18463
#	37858
#	58486
#	76276
#	93192
#	114348
#	129322
#	150972
#	168402
#	186935
#
# Disc length: 2812 seconds
#
# Revision: 0
# Processed by: cddbd v1.5.1PL0 Copyright (c) Steve Scherf et al.
# Submitted via: dBpowerAMP V4.0
#
DISCID=7d0afa0b
DTITLE=Patrick Green - Part Tonite
DYEAR=2003
DGENRE=Blues
TTITLE0=Party Tonite
TTITLE1=Rock The Boat
TTITLE2=Get Down, Get Down
TTITLE3=Not The Size Of The Ship
TTITLE4=One Pay Check
TTITLE5=Tears In My Heart
TTITLE6=Ring Around The Roses
TTITLE7=Down To Earth Woman
TTITLE8=Getting My Love
TTITLE9=How Low Can You Go
TTITLE10=Party Tonite (Club Mix)
EXTD=
EXTT0=
EXTT1=
EXTT2=
EXTT3=
EXTT4=
EXTT5=
EXTT6=
EXTT7=
EXTT8=
EXTT9=
EXTT10=
PLAYORDER=
